<mxfile host="www.draw.io" modified="2020-05-27T01:33:02.874Z" agent="5.0 (Macintosh; Intel Mac OS X 10_13_6) AppleWebKit/537.36 (KHTML, like Gecko) Chrome/80.0.3987.149 Safari/537.36" etag="keKIKckVAhrJVvJYoLAz" version="13.1.3" type="github">
  <diagram id="ykrBM9NuGJZuKzQPHM7S" name="第 1 页">
    <mxGraphModel dx="1106" dy="702" grid="1" gridSize="10" guides="1" tooltips="1" connect="1" arrows="1" fold="1" page="1" pageScale="1" pageWidth="827" pageHeight="1169" math="0" shadow="0">
      <root>
        <mxCell id="0" />
        <mxCell id="1" parent="0" />
        <mxCell id="vDnwIpDDvm84gBHIEQT_-2" value="M1" style="rounded=0;whiteSpace=wrap;html=1;" vertex="1" parent="1">
          <mxGeometry x="240" y="110" width="120" height="60" as="geometry" />
        </mxCell>
        <mxCell id="vDnwIpDDvm84gBHIEQT_-13" style="edgeStyle=none;orthogonalLoop=1;jettySize=auto;html=1;exitX=0;exitY=1;exitDx=0;exitDy=0;entryX=1;entryY=0;entryDx=0;entryDy=0;endArrow=none;endFill=0;strokeColor=#000000;" edge="1" parent="1" source="vDnwIpDDvm84gBHIEQT_-3" target="vDnwIpDDvm84gBHIEQT_-5">
          <mxGeometry relative="1" as="geometry" />
        </mxCell>
        <mxCell id="vDnwIpDDvm84gBHIEQT_-3" value="P" style="rounded=1;whiteSpace=wrap;html=1;" vertex="1" parent="1">
          <mxGeometry x="240" y="280" width="120" height="60" as="geometry" />
        </mxCell>
        <mxCell id="vDnwIpDDvm84gBHIEQT_-4" value="G1" style="ellipse;whiteSpace=wrap;html=1;" vertex="1" parent="1">
          <mxGeometry x="250" y="150" width="70" height="40" as="geometry" />
        </mxCell>
        <mxCell id="vDnwIpDDvm84gBHIEQT_-10" value="" style="edgeStyle=none;orthogonalLoop=1;jettySize=auto;html=1;endArrow=none;endFill=0;strokeColor=#000000;" edge="1" parent="1" source="vDnwIpDDvm84gBHIEQT_-5" target="vDnwIpDDvm84gBHIEQT_-9">
          <mxGeometry relative="1" as="geometry" />
        </mxCell>
        <mxCell id="vDnwIpDDvm84gBHIEQT_-5" value="G2" style="ellipse;whiteSpace=wrap;html=1;" vertex="1" parent="1">
          <mxGeometry x="110" y="420" width="70" height="40" as="geometry" />
        </mxCell>
        <mxCell id="vDnwIpDDvm84gBHIEQT_-9" value="G" style="ellipse;whiteSpace=wrap;html=1;" vertex="1" parent="1">
          <mxGeometry x="110" y="540" width="70" height="40" as="geometry" />
        </mxCell>
        <mxCell id="vDnwIpDDvm84gBHIEQT_-6" value="G" style="ellipse;whiteSpace=wrap;html=1;" vertex="1" parent="1">
          <mxGeometry x="100" y="490" width="70" height="40" as="geometry" />
        </mxCell>
        <mxCell id="vDnwIpDDvm84gBHIEQT_-12" value="M2" style="rounded=0;whiteSpace=wrap;html=1;" vertex="1" parent="1">
          <mxGeometry x="410" y="110" width="120" height="60" as="geometry" />
        </mxCell>
      </root>
    </mxGraphModel>
  </diagram>
</mxfile>
